<?xml version="1.0" encoding="utf-8"?>
<!-- Generator: Adobe Illustrator 16.0.0, SVG Export Plug-In . SVG Version: 6.00 Build 0)  -->
<!DOCTYPE svg PUBLIC "-//W3C//DTD SVG 1.1//EN" "http://www.w3.org/Graphics/SVG/1.1/DTD/svg11.dtd">
<svg version="1.1" id="Layer_1" xmlns="http://www.w3.org/2000/svg" xmlns:xlink="http://www.w3.org/1999/xlink" x="0px" y="0px"
	 width="1600px" height="483.76px" viewBox="0 0 1600 483.76" enable-background="new 0 0 1600 483.76" xml:space="preserve">
<g>
	<g id="Black">
		<path id="Circle_7_" fill="#161A21" d="M591.135,254.943c3.662,3.959,9.841,4.2,13.799,0.54c3.961-3.663,4.199-9.84,0.539-13.799
			c-3.661-3.958-9.84-4.2-13.8-0.538C587.715,244.806,587.473,250.984,591.135,254.943z M602.784,244.169
			c2.288,2.475,2.135,6.337-0.337,8.625c-2.476,2.288-6.335,2.137-8.625-0.337c-2.288-2.473-2.136-6.337,0.337-8.625
			C596.632,241.545,600.497,241.695,602.784,244.169z"/>
		<path id="Circle_6_" fill="#161A21" d="M542.627,408.38c-2.248,0.065-4.016,1.942-3.951,4.192
			c0.066,2.249,1.943,4.018,4.192,3.952c2.249-0.066,4.018-1.944,3.952-4.191C546.755,410.083,544.877,408.313,542.627,408.38z
			 M542.823,414.996c-1.408,0.042-2.58-1.064-2.621-2.47c-0.041-1.406,1.063-2.581,2.472-2.62c1.405-0.042,2.578,1.063,2.619,2.472
			C545.335,413.78,544.227,414.955,542.823,414.996z"/>
		<path id="Square_8_" fill="#161A21" d="M430.727,329.397l-0.021,13.266l13.267,0.021l0.021-13.266L430.727,329.397z
			 M441.486,340.192l-8.291-0.015l0.015-8.291l8.289,0.017L441.486,340.192z"/>
		<polygon id="X_9_" fill="#161A21" points="461.088,206.191 481.831,206.527 481.494,227.269 488.98,227.397 489.318,206.648 
			510.064,206.983 510.187,199.499 489.439,199.162 489.773,178.413 482.288,178.298 481.953,199.041 461.21,198.706 		"/>
		<polygon id="X_8_" fill="#161A21" points="552.976,436.774 550.431,448.825 538.379,446.281 537.458,450.631 549.512,453.174 
			546.969,465.231 551.317,466.149 553.863,454.093 565.919,456.636 566.833,452.286 554.779,449.744 557.324,437.69 		"/>
		<path id="Circle_5_" fill="#161A21" d="M783.22,290.276c0.953,2.762,3.965,4.228,6.729,3.273c2.76-0.952,4.228-3.964,3.273-6.726
			c-0.954-2.763-3.967-4.23-6.727-3.277C783.733,284.501,782.266,287.516,783.22,290.276z M791.347,287.471
			c0.597,1.726-0.32,3.61-2.045,4.204c-1.729,0.597-3.612-0.319-4.207-2.046c-0.596-1.728,0.321-3.61,2.048-4.206
			C788.867,284.828,790.752,285.744,791.347,287.471z"/>
		<path id="Square_6_" fill="#161A21" d="M794.753,386.356l14.135-17.33l-17.33-14.135l-14.134,17.329L794.753,386.356z
			 M792.157,360.79l10.833,8.837l-8.836,10.83l-10.832-8.835L792.157,360.79z"/>
		<path id="Square_5_" fill="#161A21" d="M1062.243,112.603l-41.576-5.011l-5.013,41.577l41.576,5.012L1062.243,112.603z
			 M1024.388,142.313l3.134-25.988l25.986,3.133l-3.133,25.988L1024.388,142.313z"/>
		<polygon id="X_6_" fill="#161A21" points="720.207,231.094 714.901,228.768 717.224,223.462 715.31,222.621 712.986,227.929 
			707.679,225.605 706.839,227.519 712.148,229.845 709.822,235.152 711.737,235.99 714.062,230.683 719.367,233.008 		"/>
		<path id="Circle_3_" fill="#161A21" d="M139.692,422.627c-3.191-1.98-7.385-0.998-9.365,2.191
			c-1.981,3.19-1.001,7.386,2.191,9.365c3.191,1.98,7.385,1,9.366-2.189C143.865,428.804,142.883,424.61,139.692,422.627z
			 M133.863,432.019c-1.995-1.236-2.605-3.862-1.369-5.854c1.236-1.992,3.859-2.607,5.853-1.369
			c1.994,1.237,2.607,3.861,1.371,5.854C138.48,432.642,135.857,433.257,133.863,432.019z"/>
		<path id="Triangle_2_" fill="#161A21" d="M265.35,73.128l11.771,3.603l-9.68,8.526L265.35,73.128 M259.583,66.581l4.734,27.52
			l21.967-19.346L259.583,66.581L259.583,66.581z"/>
		<path id="Square_1_" fill="#161A21" d="M254.41,342.907l7.388-15.247l-15.248-7.39l-7.388,15.252L254.41,342.907z
			 M248.021,324.517l9.533,4.616l-4.617,9.531l-9.529-4.616L248.021,324.517z"/>
		<polygon id="X_3_" fill="#161A21" points="299.273,454.348 301.395,462.75 292.993,464.873 293.755,467.904 302.16,465.783 
			304.284,474.187 307.316,473.423 305.193,465.018 313.6,462.895 312.831,459.862 304.427,461.984 302.306,453.582 		"/>
		<path id="Triangle" fill="#161A21" d="M1216.529,247.01l16.525,12.188l-19.959,8.057L1216.529,247.01 M1211.08,233.511
			l-7.789,45.933l45.286-18.282L1211.08,233.511L1211.08,233.511z"/>
		<path id="Square_3_" fill="#161A21" d="M1160.373,410.382l-16.072-12.162l-12.164,16.072l16.074,12.164L1160.373,410.382z
			 M1137.431,413.56l7.604-10.045l10.046,7.604l-7.604,10.046L1137.431,413.56z"/>
		<polygon id="X_1_" fill="#161A21" points="1003.406,273.966 999.308,269.335 1003.938,265.237 1002.46,263.566 997.83,267.665 
			993.73,263.035 992.061,264.514 996.159,269.144 991.529,273.244 993.009,274.914 997.639,270.813 1001.737,275.443 		"/>
		<polygon id="Y_2_" fill="#161A21" points="222.307,190.562 220.195,201.606 209.15,199.495 208.39,203.48 220.601,205.816 
			220.626,205.854 226.205,214.071 229.563,211.791 223.984,203.575 223.959,203.539 226.293,191.324 		"/>
		<polygon id="Y_3_" fill="#161A21" points="99.84,341.94 95.381,339.733 97.587,335.276 95.977,334.481 93.538,339.41 
			93.519,339.417 89.356,340.823 89.931,342.524 94.095,341.117 94.113,341.11 99.043,343.549 		"/>
		<path id="B_2_" fill="#161A21" d="M600.822,67.846c0.501-5.691-3.609-10.698-9.229-11.408l0.003-0.039l-8.455-0.745l-2.267-0.2
			l-10.244-0.903l-3.129,35.51l10.245,0.902l2.266,0.199l8.455,0.746l0.005-0.039c5.656,0.282,10.579-3.927,11.082-9.619
			c0.244-2.793-0.638-5.411-2.244-7.455C599.248,73.063,600.576,70.639,600.822,67.846z M579.604,69.875
			c-2.086-0.181-3.586-0.311-3.586-0.311v-0.003c1.002,0.086,2.242,0.195,3.586,0.312V69.875z M588.763,85.223l-6.946-0.611
			l-1.218-0.108l-2.267-0.2l-3.586-0.315l0.687-7.768c0,0,1.5,0.135,3.583,0.321v0.004c4.612,0.41,10.266,0.918,10.321,0.922
			c0.055,0.005,0.11-0.006,0.161-0.003c2.06,0.268,3.564,2.114,3.381,4.208C592.694,83.787,590.863,85.349,588.763,85.223z
			 M590.086,70.798c-0.053-0.007-0.104-0.026-0.161-0.031c-0.073-0.007-9.479-0.822-13.91-1.207l0.685-7.764l3.586,0.316
			l2.266,0.199l1.219,0.107l6.945,0.613c2.088,0.243,3.619,2.102,3.435,4.216C593.967,69.342,592.163,70.893,590.086,70.798z"/>
		<polygon id="X_4_" fill="#161A21" points="133.136,150.769 118.413,157.948 111.231,143.225 105.918,145.81 113.098,160.538 
			98.371,167.72 100.962,173.033 115.69,165.853 122.874,180.58 128.184,177.984 121.004,163.262 135.729,156.081 		"/>
		<polygon id="X_5_" fill="#161A21" points="42.683,46.491 29.812,58.353 17.948,45.482 13.3,49.758 25.166,62.633 12.291,74.5 
			16.57,79.145 29.447,67.278 41.313,80.153 45.953,75.868 34.092,62.998 46.962,51.136 		"/>
		<polygon fill="#161A21" points="1391.039,36.066 1372.648,29.49 1370.276,36.128 1390.611,43.399 1390.645,43.471 
			1398.025,59.066 1404.396,56.048 1397.016,40.455 1396.982,40.386 1404.252,20.049 1397.615,17.674 		"/>
		<path fill="#161A21" d="M1498.396,29.025c-7.498,0.366-13.275,6.614-13.194,14.057l-0.053,0.002l0.544,11.136l0.146,2.989
			l0.66,13.498l46.781-2.29l-0.658-13.498l-0.148-2.989l-0.543-11.136l-0.053,0.002c-0.647-7.416-7.01-13.067-14.507-12.701
			c-3.681,0.18-6.932,1.799-9.303,4.256C1505.469,30.139,1502.074,28.845,1498.396,29.025z M1523.177,41.607l0.445,9.152
			l0.079,1.601l0.147,2.99l0.23,4.725l-10.232,0.501c0,0-0.094-1.979-0.227-4.726h0.006c-0.292-6.074-0.646-13.526-0.65-13.6
			c-0.002-0.074-0.024-0.143-0.031-0.21c-0.02-2.73,2.113-5.021,4.87-5.156C1520.602,36.747,1522.963,38.852,1523.177,41.607z
			 M1504.16,42.469c0.003,0.068-0.015,0.139-0.012,0.212c0.006,0.097,0.629,12.489,0.922,18.324
			c-0.064-1.318-0.146-2.952-0.236-4.725h0.004c0.139,2.747,0.237,4.725,0.237,4.725h-0.005l-10.229,0.5l-0.231-4.725l-0.146-2.99
			l-0.079-1.602l-0.447-9.152c-0.057-2.761,2.089-5.087,4.873-5.223C1501.57,37.678,1503.913,39.75,1504.16,42.469z"/>
		<polygon fill="#161A21" points="1564.836,303.228 1557.504,312.937 1547.799,305.601 1545.148,309.101 1554.859,316.437 
			1547.523,326.147 1551.025,328.793 1558.361,319.085 1568.071,326.418 1570.714,322.915 1561.008,315.58 1568.34,305.874 		"/>
	</g>
	<g id="Red">
		<path id="Triangle_5_" fill="#FF2A2F" d="M724.91,385.343l-5.574,19.956l-14.75-15.937L724.91,385.343 M735.689,375.364
			l-46.113,9.111l33.467,36.16L735.689,375.364L735.689,375.364z"/>
		<path id="Triangle_4_" fill="#FF2A2F" d="M457.582,46.538l-5.46,5.415l-1.835-7.848L457.582,46.538 M462.889,45.297l-16.549-5.521
			l4.164,17.807L462.889,45.297L462.889,45.297z"/>
		<path id="Square_9_" fill="#FF2A2F" d="M631.687,200.061L619.4,216.626l16.566,12.287l12.287-16.565L631.687,200.061z
			 M635.163,223.505l-10.354-7.681l7.682-10.354l10.354,7.68L635.163,223.505z"/>
		<path id="Triangle_3_" fill="#FF2A2F" d="M913.992,203.47l17.275-12.636l1.788,22.361L913.992,203.47 M898.869,204.679
			l43.25,22.07l-4.059-50.734L898.869,204.679L898.869,204.679z"/>
		<path id="Circle_4_" fill="#FF2A2F" d="M853.07,105.087c1.254,7.643,8.465,12.824,16.11,11.569
			c7.646-1.253,12.822-8.465,11.568-16.109c-1.252-7.644-8.465-12.823-16.109-11.569C856.999,90.231,851.817,97.444,853.07,105.087z
			 M875.563,101.399c0.783,4.777-2.457,9.286-7.231,10.069c-4.776,0.784-9.285-2.455-10.067-7.233
			c-0.781-4.773,2.453-9.285,7.229-10.068C870.268,93.384,874.778,96.624,875.563,101.399z"/>
		<path id="Square_7_" fill="#FF2A2F" d="M1000.193,290.929l-10.44-6.447l-6.444,10.439l10.438,6.448L1000.193,290.929z
			 M986.474,294.174l4.03-6.525l6.526,4.029l-4.03,6.527L986.474,294.174z"/>
		<polygon id="X_7_" fill="#FF2A2F" points="992.66,430.774 985.605,421.999 994.379,414.943 991.835,411.775 983.059,418.831 
			976,410.055 972.835,412.601 979.892,421.378 971.115,428.437 973.664,431.6 982.439,424.545 989.493,433.318 		"/>
		<path id="Triangle_1_" fill="#FF2A2F" d="M349.456,419.964l20.083,9.398l-19.418,12.764L349.456,419.964 M340.822,406.827
			l1.497,50.279l44.064-28.959L340.822,406.827L340.822,406.827z"/>
		<path id="Circle_2_" fill="#FF2A2F" d="M317.41,323.971c-3.847-5.644-11.541-7.101-17.185-3.254
			c-5.643,3.847-7.099,11.541-3.253,17.185c3.846,5.643,11.539,7.101,17.186,3.252C319.8,337.31,321.256,329.612,317.41,323.971z
			 M300.805,335.288c-2.402-3.525-1.49-8.337,2.034-10.741c3.526-2.403,8.335-1.493,10.74,2.033
			c2.405,3.524,1.493,8.336-2.033,10.741C308.021,339.726,303.21,338.815,300.805,335.288z"/>
		<path id="Square" fill="#FF2A2F" d="M333.676,147.669l-14.632,25.717l25.716,14.632l14.633-25.718L333.676,147.669z
			 M342.684,180.451l-16.072-9.145l9.145-16.073l16.071,9.145L342.684,180.451z"/>
		<polygon id="X_2_" fill="#FF2A2F" points="216.642,296.407 221.405,275.849 241.96,280.611 243.685,273.194 223.123,268.43 
			227.886,247.87 220.469,246.151 215.704,266.713 195.141,261.951 193.429,269.371 213.986,274.13 209.225,294.689 		"/>
		<path id="Circle" fill="#FF2A2F" d="M1076.919,253.99c-3.494,0.471-5.945,3.682-5.475,7.175c0.473,3.493,3.684,5.944,7.179,5.472
			c3.492-0.469,5.941-3.682,5.471-7.178C1083.623,255.97,1080.41,253.519,1076.919,253.99z M1078.303,264.268
			c-2.188,0.295-4.192-1.238-4.485-3.422c-0.296-2.18,1.233-4.19,3.421-4.484c2.181-0.293,4.188,1.24,4.482,3.421
			C1082.014,261.965,1080.482,263.974,1078.303,264.268z"/>
		<path id="Circle_1_" fill="#FF2A2F" d="M1453.276,147.927c6.376,6.865,17.109,7.261,23.974,0.886
			c6.866-6.375,7.265-17.111,0.889-23.977c-6.375-6.865-17.111-7.262-23.979-0.886
			C1447.297,130.326,1446.9,141.062,1453.276,147.927z M1473.478,129.167c3.983,4.29,3.735,11-0.554,14.985
			c-4.288,3.985-10.999,3.735-14.982-0.554c-3.982-4.289-3.736-11,0.554-14.984C1462.782,124.628,1469.495,124.878,1473.478,129.167
			z"/>
		<path id="Square_2_" fill="#FF2A2F" d="M1370.113,342.437l11.539-0.511l-0.512-11.538l-11.538,0.51L1370.113,342.437z
			 M1379.072,332.646l0.319,7.217l-7.213,0.317l-0.317-7.216L1379.072,332.646z"/>
		<path id="Square_4_" fill="#FF2A2F" d="M1558.218,389.06l-52.918,41.783l41.784,52.917l52.918-41.781L1558.218,389.06z
			 M1549.172,466.006l-26.116-33.075l33.074-26.116l26.118,33.075L1549.172,466.006z"/>
		<polygon id="X" fill="#FF2A2F" points="1325.936,417.741 1334.629,423.84 1328.531,432.532 1331.665,434.735 1337.766,426.042 
			1346.462,432.14 1348.663,429.003 1339.967,422.903 1346.066,414.207 1342.927,412.01 1336.83,420.703 1328.135,414.604 		"/>
		<path id="A_2_" fill="#FF2A2F" d="M1543.689,95.77l-4.08,1.701l15.975,17.352l5.563-2.32l-1.083-23.56l-4.081,1.701l0.304,6.627
			l-8.106,3.379L1543.689,95.77z M1556.49,101.689l0.387,8.407l-5.701-6.191L1556.49,101.689z"/>
		<path id="B_3_" fill="#FF2A2F" d="M20.035,172.399c-2.579-2.788-6.88-3-9.741-0.551l-0.019-0.018l-4.142,3.831l-1.113,1.028
			L0,181.331l16.09,17.402l5.02-4.642l1.113-1.028l4.142-3.83l-0.018-0.019c2.668-2.66,2.793-6.965,0.214-9.754
			c-1.267-1.37-2.948-2.103-4.673-2.224C21.902,175.504,21.3,173.769,20.035,172.399z M11.558,183.756
			c-1.02,0.945-1.754,1.626-1.754,1.626l-0.003-0.003c0.49-0.454,1.098-1.016,1.754-1.626L11.558,183.756z M23.206,186.101
			l-3.402,3.147l-0.596,0.551l-1.113,1.028l-1.757,1.625l-3.52-3.807c0,0,0.737-0.68,1.759-1.622l0.002,0.002
			c2.263-2.087,5.038-4.646,5.065-4.672c0.026-0.024,0.045-0.055,0.071-0.081c1.052-0.895,2.634-0.811,3.583,0.215
			C24.256,183.522,24.208,185.123,23.206,186.101z M16.695,179.006c-0.027,0.021-0.059,0.038-0.087,0.063
			c-0.035,0.034-4.639,4.301-6.808,6.311l-3.518-3.804l1.757-1.624l1.113-1.028l0.595-0.551l3.404-3.147
			c1.052-0.921,2.652-0.845,3.611,0.192C17.71,176.441,17.668,178.025,16.695,179.006z"/>
		<path fill="#FF2A2F" d="M359.657,252.605l14.875,62.582l10.073-6.636l-4.185-17.599l20.004-13.175l14.518,10.793l10.071-6.635
			l-51.626-38.375L359.657,252.605z M377.63,279.218l-5.307-22.332l18.42,13.692L377.63,279.218z"/>
		<path fill="#FF2A2F" d="M1286.635,127.807l43.207,26.849l1.959-9.333l-12.149-7.552l3.891-18.536l14.162-2.026l1.96-9.333
			l-50.354,7.208L1286.635,127.807z M1311.547,132.74l-15.418-9.58l17.971-2.572L1311.547,132.74z"/>
		<polygon fill="#FF2A2F" points="1161.939,102.183 1154.76,107.503 1149.441,100.326 1146.849,102.244 1152.732,110.183 
			1152.727,110.22 1151.568,118.027 1154.757,118.5 1155.916,110.693 1155.922,110.656 1163.859,104.772 		"/>
		<path fill="#FF2A2F" d="M1198.073,318.041l0.015-0.017l-3.522-3.354l-0.944-0.899l-4.271-4.065l-14.095,14.802l4.271,4.066
			l0.943,0.899l3.523,3.357l0.016-0.019c2.438,2.148,6.15,2.021,8.407-0.352c1.107-1.164,1.649-2.654,1.658-4.146
			c1.492-0.082,2.949-0.693,4.06-1.858C1200.393,324.084,1200.339,320.371,1198.073,318.041z M1186.515,329.94l-2.896-2.758
			l-0.507-0.481l-0.945-0.9l-1.494-1.425l3.083-3.236c0,0,0.626,0.594,1.494,1.424l-0.002,0.002
			c1.919,1.834,4.273,4.082,4.296,4.104c0.022,0.021,0.052,0.037,0.075,0.056c0.827,0.856,0.842,2.224,0.013,3.094
			C1188.79,330.7,1187.411,330.745,1186.515,329.94z M1192.266,323.944c-0.021-0.021-0.037-0.049-0.062-0.07
			c-0.024-0.023-2.385-2.266-4.306-4.092l-0.002,0.002c-0.871-0.829-1.498-1.422-1.498-1.422l0.002-0.004l3.082-3.234l1.496,1.425
			l0.944,0.899l0.508,0.482l2.896,2.758c0.851,0.854,0.872,2.233,0.032,3.119C1194.525,324.677,1193.161,324.729,1192.266,323.944z"
			/>
		<polygon fill="#FF2A2F" points="1070.001,20.565 1071.157,12.031 1079.689,13.187 1080.107,10.109 1071.573,8.951 1072.729,0.42 
			1069.65,0 1068.494,8.535 1059.958,7.38 1059.547,10.46 1068.077,11.615 1066.924,20.147 		"/>
	</g>
</g>
</svg>
