<?xml version="1.0" encoding="utf-8"?>
<!-- Generator: Adobe Illustrator 16.0.0, SVG Export Plug-In . SVG Version: 6.00 Build 0)  -->
<!DOCTYPE svg PUBLIC "-//W3C//DTD SVG 1.1//EN" "http://www.w3.org/Graphics/SVG/1.1/DTD/svg11.dtd">
<svg version="1.1" id="Layer_1" xmlns="http://www.w3.org/2000/svg" xmlns:xlink="http://www.w3.org/1999/xlink" x="0px" y="0px"
	 width="600px" height="600px" viewBox="0 0 600 600" enable-background="new 0 0 600 600" xml:space="preserve">
<g id="Black">
	<path id="Square_8_" fill="#161A21" d="M41.325,272.577l-8.793,8.792l8.792,8.792l8.793-8.792L41.325,272.577z M41.324,286.863
		l-5.495-5.494l5.495-5.496l5.495,5.496L41.324,286.863z"/>
	<path id="Square_1_" fill="#161A21" d="M242.96,422.751v15.883h15.882v-15.883H242.96z M255.864,435.655h-9.926v-9.929h9.926
		V435.655z"/>
	<polygon id="X_2_" fill="#161A21" points="122.152,466.675 108.166,480.66 94.183,466.675 89.131,471.718 103.119,485.708 
		89.131,499.696 94.177,504.742 108.166,490.754 122.157,504.742 127.199,499.691 113.214,485.708 127.199,471.721 	"/>
	<path id="B_2_" fill="#161A21" d="M24.21,47.042c1.974-4.979-0.377-10.575-5.236-12.718l0.014-0.036l-7.395-2.933L9.61,30.568
		l-8.96-3.552l-12.318,31.059l8.959,3.553l1.983,0.787l7.395,2.933l0.014-0.034c5.007,1.77,10.556-0.694,12.53-5.673
		c0.968-2.442,0.875-5.031-0.02-7.297C21.399,51.307,23.241,49.484,24.21,47.042z M4.607,43.183c-1.824-0.721-3.138-1.24-3.138-1.24
		L1.47,41.94c0.876,0.347,1.96,0.775,3.138,1.24L4.607,43.183z M8.725,59.423l-6.076-2.41l-1.065-0.422l-1.983-0.787l-3.137-1.243
		l2.695-6.795c0,0,1.312,0.523,3.135,1.248l-0.001,0.004c4.032,1.604,8.975,3.573,9.024,3.593c0.049,0.02,0.101,0.024,0.146,0.04
		c1.778,0.793,2.637,2.854,1.91,4.685C12.64,59.186,10.576,60.099,8.725,59.423z M13.776,46.819
		c-0.045-0.019-0.085-0.051-0.135-0.07c-0.064-0.025-8.295-3.277-12.171-4.809l2.693-6.792L7.3,36.393l1.983,0.787l1.065,0.422
		l6.076,2.41c1.811,0.777,2.688,2.857,1.954,4.707C17.651,46.55,15.615,47.46,13.776,46.819z"/>
	<path id="B_3_" fill="#161A21" d="M26.528,351.087c-1.948-2.979-5.89-3.846-8.917-2.026l-0.013-0.021l-4.426,2.896l-1.188,0.775
		l-5.364,3.507l12.157,18.595l5.364-3.508l1.188-0.775l4.426-2.896l-0.014-0.021c2.88-2.043,3.667-6.002,1.718-8.981
		c-0.957-1.462-2.397-2.401-3.972-2.782C27.769,354.248,27.484,352.55,26.528,351.087z M16.921,360.262
		c-1.09,0.715-1.875,1.229-1.875,1.229l-0.002-0.003c0.524-0.344,1.173-0.768,1.875-1.23L16.921,360.262z M27.323,364.245
		l-3.636,2.378l-0.637,0.416l-1.188,0.777l-1.877,1.228l-2.659-4.067c0,0,0.786-0.513,1.879-1.226l0.001,0.003
		c2.416-1.576,5.38-3.508,5.41-3.527c0.029-0.02,0.051-0.043,0.078-0.063c1.111-0.663,2.562-0.339,3.278,0.757
		C28.695,362.025,28.4,363.498,27.323,364.245z M22.411,356.672c-0.029,0.018-0.061,0.026-0.089,0.045
		c-0.038,0.025-4.959,3.252-7.277,4.771l-2.658-4.064l1.877-1.229l1.188-0.775l0.637-0.417l3.636-2.377
		c1.117-0.688,2.583-0.368,3.307,0.739C23.749,354.461,23.463,355.918,22.411,356.672z"/>
	<polygon id="X_4_" fill="#161A21" points="108.479,294.279 94.671,300.991 87.957,287.184 82.973,289.601 89.687,303.414 
		75.875,310.128 78.297,315.111 92.11,308.396 98.827,322.21 103.807,319.783 97.094,305.975 110.902,299.261 	"/>
	<polygon id="X_5_" fill="#161A21" points="62.188,147.181 50.588,158.782 38.986,147.181 34.796,151.364 46.4,162.969 
		34.796,174.573 38.982,178.76 50.588,167.154 62.192,178.76 66.375,174.568 54.774,162.969 66.375,151.368 	"/>
</g>
<g id="Red">
	<path id="Triangle_5_" fill="#FF2A2F" d="M7.132,509.381l-1.917,19.326l-16.197-12.327L7.132,509.381 M15.471,498.424l-41.1,15.876
		l36.749,27.968L15.471,498.424L15.471,498.424z"/>
	<path id="Circle_7_" fill="#FF2A2F" d="M19.577,229.685c-5.055,0-9.153,4.099-9.153,9.152c0,5.055,4.098,9.151,9.153,9.151
		c5.054,0,9.152-4.097,9.152-9.151C28.729,233.783,24.63,229.685,19.577,229.685z M19.577,244.558c-3.159,0-5.72-2.563-5.72-5.721
		c0-3.158,2.562-5.722,5.72-5.722c3.157,0,5.72,2.564,5.72,5.722C25.297,241.995,22.734,244.558,19.577,244.558z"/>
	<path id="Triangle_4_" fill="#FF2A2F" d="M20.907,127.493l6.152,3.755l-6.731,3.43L20.907,127.493 M18.587,122.941l-1.315,16.299
		l15.273-7.781L18.587,122.941L18.587,122.941z"/>
	<path id="Square_9_" fill="#FF2A2F" d="M44.076,438.634v12.081h12.082v-12.081H44.076z M53.892,448.45h-7.551v-7.552h7.551V448.45z
		"/>
	<polygon id="X_8_" fill="#FF2A2F" points="497.483,582.523 484.867,587.015 480.376,574.398 475.821,576.016 480.313,588.635 
		467.693,593.129 469.314,597.68 481.934,593.188 486.428,605.809 490.979,604.184 486.487,591.566 499.104,587.076 	"/>
	<path id="Square_6_" fill="#FF2A2F" d="M114.833,378.74v13.102h13.103V378.74H114.833z M125.479,389.386h-8.189v-8.19h8.189
		V389.386z"/>
	<path id="Triangle_1_" fill="#FF2A2F" d="M154.342,587.1l25.671,41.718h-51.335L154.342,587.1 M154.342,552.375l-58.241,94.641
		h116.481L154.342,552.375L154.342,552.375z"/>
	<path id="Circle_2_" fill="#FF2A2F" d="M165.933,408.819c-6.401,0-11.591,5.188-11.591,11.591s5.19,11.592,11.591,11.592
		c6.4,0,11.591-5.188,11.591-11.592C177.524,414.01,172.333,408.819,165.933,408.819z M165.933,427.655
		c-4,0-7.245-3.247-7.245-7.245c0-4,3.244-7.244,7.245-7.244c3.999,0,7.245,3.244,7.245,7.244
		C173.177,424.408,169.932,427.655,165.933,427.655z"/>
	<path id="Circle_3_" fill="#FF2A2F" d="M198.065,511.625c-4.815,0-8.72,3.906-8.72,8.721c0,4.815,3.905,8.724,8.72,8.724
		c4.817,0,8.723-3.905,8.723-8.724C206.788,515.531,202.882,511.625,198.065,511.625z M198.065,525.797
		c-3.01,0-5.45-2.443-5.45-5.451c0-3.009,2.44-5.447,5.45-5.447c3.01,0,5.451,2.438,5.451,5.447
		C203.517,523.354,201.076,525.797,198.065,525.797z"/>
	<path id="Triangle_2_" fill="#FF2A2F" d="M77.607,204.038l-2.225,11.32l-8.883-8.204L77.607,204.038 M83.156,198.031l-25.202,7.065
		l20.153,18.615L83.156,198.031L83.156,198.031z"/>
	<path id="Square" fill="#FF2A2F" d="M53.456,552.375v17.1h17.1v-17.1H53.456z M67.349,566.268H56.662V555.58h10.687V566.268z"/>
	<polygon id="Y_2_" fill="#FF2A2F" points="223.633,310.584 216.18,318.037 208.727,310.584 206.038,313.273 214.278,321.516 
		214.278,321.559 214.278,330.866 218.081,330.866 218.081,321.559 218.081,321.518 226.322,313.273 	"/>
	<path fill="#FF2A2F" d="M147.401,223.712l-17.74,21.491l4.925,1.748l4.989-6.044l9.779,3.47l0.063,7.837l4.925,1.747l-0.227-27.866
		L147.401,223.712z M142.9,236.877l6.33-7.668l0.081,9.943L142.9,236.877z"/>
</g>
</svg>
