<?xml version="1.0" encoding="utf-8"?>
<!-- Generator: Adobe Illustrator 16.0.0, SVG Export Plug-In . SVG Version: 6.00 Build 0)  -->
<!DOCTYPE svg PUBLIC "-//W3C//DTD SVG 1.1//EN" "http://www.w3.org/Graphics/SVG/1.1/DTD/svg11.dtd">
<svg version="1.1" id="Layer_1" xmlns="http://www.w3.org/2000/svg" xmlns:xlink="http://www.w3.org/1999/xlink" x="0px" y="0px"
	 width="600px" height="600px" viewBox="0 0 600 600" enable-background="new 0 0 600 600" xml:space="preserve">
<g id="Black">
	<path fill="#161A21" d="M481.209,283.531l38.06-7.324l7.321,38.06l-38.056,7.324L481.209,283.531z M494.618,312.605l22.99-4.424
		l-4.427-22.988l-22.987,4.424L494.618,312.605z"/>
	<path fill="#161A21" d="M561.953,462.951c-4.699,0-8.521-3.822-8.521-8.521c0-4.697,3.822-8.52,8.521-8.52
		c4.697,0,8.52,3.822,8.52,8.52C570.473,459.129,566.65,462.951,561.953,462.951z M561.953,449.512
		c-2.712,0-4.919,2.206-4.919,4.918c0,2.713,2.207,4.92,4.919,4.92s4.918-2.207,4.918-4.92
		C566.871,451.718,564.665,449.512,561.953,449.512z"/>
	<path fill="#161A21" d="M557.654,311.448v-18.915h18.914v18.915H557.654z M572.616,307.495v-11.009h-11.01v11.009H572.616z"/>
	<path fill="#161A21" d="M505.823,531.626l9.399-61.381l61.384,9.402l-9.4,61.38L505.823,531.626z M557.117,527.293l5.753-37.563
		l-37.567-5.751l-5.751,37.562L557.117,527.293z"/>
	<polygon fill="#161A21" points="506.105,239.665 502.111,243.66 500.315,241.864 504.312,237.868 500.315,233.874 502.111,232.082 
		506.105,236.075 510.102,232.082 511.896,233.875 507.9,237.868 511.896,241.861 510.102,243.66 	"/>
	<path fill="#161A21" d="M525.9,70.306l7.557-7.558l37.138,17.315l-5.74,5.738l-10.311-4.808l-10.4,10.4l4.811,10.31l-5.737,5.736
		L525.9,70.306z M540.718,84.039l6.475-6.475l-12.133-5.657L540.718,84.039z"/>
	<polygon fill="#161A21" points="435.556,154.224 417.044,146.993 419.567,140.528 436.188,147.02 442.68,130.4 449.143,132.925 
		441.915,151.44 448.327,166.074 441.973,168.862 	"/>
	<polygon fill="#161A21" points="532.598,395.111 524.737,402.971 521.549,399.783 529.408,391.921 521.549,384.061 524.74,380.873 
		532.598,388.732 540.456,380.873 543.646,384.063 535.787,391.921 543.646,399.78 540.46,402.971 	"/>
	<polygon fill="#161A21" points="560.95,188.356 554.648,194.659 552.021,192.029 558.323,185.729 552.021,179.427 554.649,176.801 
		560.95,183.103 567.25,176.801 569.877,179.429 563.577,185.729 569.877,192.027 567.253,194.659 	"/>
	<path fill="#161A21" d="M437.945,363.997c-5.388,0-9.771-4.383-9.771-9.771c0-5.389,4.384-9.772,9.771-9.772
		c2.609,0,5.063,1.017,6.909,2.863c1.846,1.846,2.861,4.3,2.861,6.909C447.716,359.614,443.333,363.997,437.945,363.997z
		 M437.945,348.523c-3.143,0-5.699,2.56-5.699,5.705c0,3.141,2.557,5.695,5.699,5.695c1.521,0,2.952-0.593,4.028-1.67
		c1.077-1.076,1.669-2.506,1.668-4.025C443.642,351.083,441.086,348.523,437.945,348.523z"/>
	<path fill="#161A21" d="M404.126,452.957l2.88-10.671l10.671,2.881l-2.88,10.671L404.126,452.957z M413.051,452.796l1.591-5.88
		l-5.887-1.592l-1.587,5.884L413.051,452.796z"/>
</g>
<g id="Red">
	<path id="Triangle_3_" fill="#FF2A2F" d="M570.229,349.37L587,354.344l-13.652,12.237L570.229,349.37 M561.953,340.137
		l7.071,39.049L600,351.422L561.953,340.137L561.953,340.137z"/>
	<path id="Circle_5_" fill="#FF2A2F" d="M492.491,380.52c-6.298,0-11.403,5.106-11.403,11.404c0,6.295,5.105,11.402,11.403,11.402
		s11.405-5.107,11.405-11.402C503.896,385.626,498.789,380.52,492.491,380.52z M492.491,399.051c-3.938,0-7.127-3.193-7.127-7.127
		c0-3.938,3.189-7.13,7.127-7.13c3.934,0,7.128,3.192,7.128,7.13C499.619,395.857,496.425,399.051,492.491,399.051z"/>
	<path id="Circle_4_" fill="#FF2A2F" d="M470.324,45.181c-4.938,0-8.938,4.001-8.938,8.935c0,4.934,4,8.934,8.938,8.934
		c4.936,0,8.934-4,8.934-8.934C479.258,49.182,475.26,45.181,470.324,45.181z M470.324,59.698c-3.083,0-5.583-2.501-5.583-5.583
		c0-3.083,2.5-5.583,5.583-5.583c3.082,0,5.584,2.5,5.584,5.583C475.908,57.197,473.406,59.698,470.324,59.698z"/>
	<path id="Square_7_" fill="#FF2A2F" d="M239.991,566.27l-26.115,26.114l26.115,26.114l26.113-26.114L239.991,566.27z
		 M239.996,608.702l-16.323-16.321l16.323-16.323l16.32,16.323L239.996,608.702z"/>
	<path id="Triangle" fill="#FF2A2F" d="M497.773,161.544l11.719,5.689l-11.521,7.336L497.773,161.544 M492.811,153.755l0.459,29.555
		l26.135-16.646L492.811,153.755L492.811,153.755z"/>
	<path id="Circle_1_" fill="#FF2A2F" d="M459.635,252.922c-8.559,0-15.498,6.94-15.498,15.499c0,8.56,6.939,15.5,15.498,15.5
		c8.563,0,15.5-6.94,15.5-15.5C475.135,259.862,468.194,252.922,459.635,252.922z M459.635,278.107
		c-5.349,0-9.687-4.338-9.687-9.687s4.338-9.686,9.687-9.686c5.352,0,9.688,4.337,9.688,9.686S464.982,278.107,459.635,278.107z"/>
	<polygon id="X" fill="#FF2A2F" points="348.172,513.031 341.313,519.891 334.452,513.031 331.975,515.504 338.836,522.367 
		331.975,529.229 334.45,531.704 341.313,524.841 348.174,531.704 350.646,529.225 343.787,522.367 350.646,515.506 	"/>
	<path fill="#FF2A2F" d="M446.444,515.265l0.01-0.016l-3.736-2.407l-1.002-0.646l-4.528-2.919l-10.111,15.692l4.526,2.918
		l1.004,0.646l3.733,2.407l0.012-0.021c2.558,1.514,5.862,0.764,7.482-1.754c0.796-1.234,1.027-2.664,0.779-4.004
		c1.321-0.329,2.526-1.129,3.321-2.363C449.561,520.289,448.875,516.967,446.444,515.265z M438.108,527.919l-3.07-1.979
		l-0.538-0.351l-1.002-0.646l-1.586-1.022l2.213-3.434c0,0,0.663,0.428,1.584,1.021v0.001c2.036,1.315,4.532,2.935,4.559,2.947
		c0.024,0.017,0.056,0.024,0.075,0.038c0.894,0.627,1.142,1.849,0.541,2.772C440.28,528.213,439.051,528.488,438.108,527.919z
		 M442.242,521.554c-0.022-0.014-0.043-0.034-0.067-0.052c-0.021-0.016-2.523-1.625-4.563-2.935v0.001
		c-0.924-0.597-1.588-1.021-1.588-1.021l0.002-0.002l2.211-3.431l1.586,1.021l1.002,0.646l0.538,0.347l3.065,1.979
		c0.91,0.62,1.165,1.854,0.563,2.793C444.396,521.826,443.182,522.105,442.242,521.554z"/>
	<path id="Circle_8_" fill="#FF2A2F" d="M488.215,458.941c-9.881,0-17.891,8.013-17.891,17.892c0,9.884,8.01,17.895,17.891,17.895
		c9.879,0,17.895-8.011,17.895-17.895C506.105,466.954,498.094,458.941,488.215,458.941z M488.215,488.018
		c-6.178,0-11.182-5.013-11.182-11.185c0-6.169,5.004-11.182,11.182-11.182c6.168,0,11.185,5.013,11.185,11.182
		C499.395,483.005,494.383,488.018,488.215,488.018z"/>
	<path id="Circle_9_" fill="#FF2A2F" d="M444.136,564.066c-22.395,0-40.55,18.157-40.55,40.554c0,22.401,18.155,40.561,40.55,40.561
		c22.396,0,40.552-18.159,40.552-40.561C484.688,582.229,466.529,564.066,444.136,564.066z M444.136,629.972
		c-14.002,0-25.345-11.358-25.345-25.352c0-13.983,11.343-25.345,25.345-25.345c13.981,0,25.343,11.357,25.343,25.345
		C469.479,618.609,458.117,629.972,444.136,629.972z"/>
</g>
</svg>
