<?xml version="1.0" encoding="utf-8"?>
<!-- Generator: Adobe Illustrator 16.0.0, SVG Export Plug-In . SVG Version: 6.00 Build 0)  -->
<!DOCTYPE svg PUBLIC "-//W3C//DTD SVG 1.1//EN" "http://www.w3.org/Graphics/SVG/1.1/DTD/svg11.dtd">
<svg version="1.1" id="Logo" xmlns="http://www.w3.org/2000/svg" xmlns:xlink="http://www.w3.org/1999/xlink" x="0px" y="0px"
	 width="159.461px" height="40px" viewBox="0 0 159.461 40" enable-background="new 0 0 159.461 40" xml:space="preserve">
<g>
	<path fill="#161A21" d="M61,19.972c0-6.619,4.353-10.969,10.545-10.969c2.056,0,4.804,0.482,6.345,1.239l-0.422,3.686
		c-1.633-0.664-3.958-1.208-5.83-1.208c-4.414,0-6.409,3.083-6.409,7.192c0,4.318,2.208,7.373,6.59,7.373
		c0.877,0,1.876-0.124,2.903-0.333v-3.78h-2.328v-3.199h6.193v9.421c-1.542,0.881-4.834,1.604-7.251,1.604
		C65.414,30.997,61,26.646,61,19.972z"/>
	<path fill="#161A21" d="M94.783,30.572l-1.814-5.105h-7.037l-1.813,5.105h-4.02l7.521-21.15h3.652l7.52,21.15H94.783z
		 M89.434,15.529l-2.178,6.192h4.383L89.434,15.529z"/>
	<path fill="#161A21" d="M118.709,30.572l-1.813-14.168l-5.404,9.728l-5.441-9.698l-1.813,14.139h-4.021l2.933-21.15h3.18
		l5.164,9.639l5.139-9.639h3.172l2.937,21.15L118.709,30.572L118.709,30.572z"/>
	<path fill="#161A21" d="M138.414,30.572l-4.385-7.854h-3.93v7.854h-3.863V9.423h7.729c4.082,0,7.281,1.509,7.281,6.105
		c0,3.264-1.604,4.927-3.596,6.164l4.771,8.89L138.414,30.572L138.414,30.572z M130.102,12.656v6.436h2.842
		c3.507,0,4.265-1.39,4.265-3.293c0-1.963-0.789-3.141-4.104-3.141h-3L130.102,12.656L130.102,12.656z"/>
	<path fill="#161A21" d="M144.275,29.457l0.451-4.415c1.145,1.122,3.477,2.241,6.645,2.241c2.271,0,3.775-0.579,3.775-2.301
		c0-2.146-2.355-2.9-4.931-3.777c-2.989-1.027-6.256-2.082-6.256-5.862c0-2.808,1.938-6.343,7.646-6.343
		c2.896,0,5.646,0.907,6.729,1.63l-0.394,3.96c-2.27-1.242-4.17-1.902-6.194-1.902c-1.629,0-3.863,0.422-3.863,2.235
		c0,1.694,1.968,2.357,4.265,3.052c3.295,0.998,7.313,2.205,7.313,6.855c0,2.419-1.061,6.166-8.188,6.166
		C148.08,30.997,145.48,30.243,144.275,29.457z"/>
</g>
<g>
	<g id="Red">
		<path id="DBG" fill="#F0282C" d="M39.69,22.925c-0.114-1.489-0.269-2.979-0.471-4.459c-0.353-2.559-0.853-5.096-1.613-7.563
			c-0.319-1.07-0.695-2.13-1.132-3.161c-0.413-0.996-0.864-2.005-1.438-2.92c-1.167-1.86-2.977-3.179-5.053-3.863
			c-0.871-0.29-1.782-0.472-2.692-0.566c-0.538-0.052-1.064-0.052-1.604-0.08c-0.574-0.028-1.147-0.043-1.721-0.05
			c-0.115-0.001-0.229,0.001-0.344,0c-0.459-0.002-0.918-0.003-1.378,0.003c-1.648,0.021-3.298,0.096-4.941,0.238
			c-0.548,0.047-1.095,0.102-1.642,0.165c-2.47,0.286-4.947,0.727-7.308,1.516c-2.07,0.686-4.045,1.746-5.522,3.378
			c-1.286,1.421-2.089,3.187-2.48,5.055c-0.462,2.198-0.414,4.486-0.165,6.707c0.498,4.516,1.257,9.098,2.847,13.375
			c0.542,1.46,1.213,2.82,2.048,4.131c0.425,0.669,0.865,1.313,1.409,1.897c1.007,1.081,2.252,1.927,3.624,2.478
			c2.046,0.814,4.304,0.941,6.473,0.658c2.914-0.379,5.808-1.069,8.623-1.904c2.189-0.646,4.355-1.409,6.445-2.318
			c1.125-0.496,2.179-1.062,3.215-1.729c0.988-0.646,1.946-1.321,2.721-2.229c1.16-1.363,1.789-3.063,2.038-4.815
			C39.814,25.556,39.781,24.235,39.69,22.925z"/>
		<path id="BG" fill="#FF3237" d="M39.928,21.938c-0.106-1.442-0.253-2.884-0.452-4.316c-0.343-2.475-0.825-4.931-1.559-7.322
			c-0.317-1.036-0.681-2.061-1.1-3.059c-0.397-0.964-0.837-1.941-1.393-2.826c-1.134-1.8-2.882-3.076-4.89-3.738
			c-0.847-0.279-1.728-0.455-2.604-0.549c-0.519-0.053-1.034-0.053-1.555-0.079c-1.104-0.051-2.215-0.055-3.323-0.042
			c-2.127,0.031-4.259,0.15-6.375,0.396c-2.39,0.275-4.788,0.703-7.074,1.463C7.602,2.536,5.688,3.561,4.258,5.141
			c-1.244,1.376-2.02,3.086-2.4,4.891c-0.445,2.131-0.396,4.339-0.158,6.492c0.483,4.375,1.218,8.811,2.753,12.944
			c0.524,1.413,1.173,2.731,1.985,3.998c0.411,0.646,0.835,1.27,1.363,1.831c0.976,1.049,2.18,1.868,3.51,2.401
			c1.98,0.79,4.165,0.912,6.263,0.64c2.817-0.37,5.62-1.045,8.345-1.846c2.118-0.635,4.218-1.363,6.235-2.247
			c1.093-0.479,2.108-1.022,3.107-1.673c0.961-0.625,1.885-1.278,2.634-2.157c1.123-1.316,1.732-2.962,1.976-4.661
			C40.053,24.482,40.019,23.209,39.928,21.938z"/>
	</g>
	<path id="Controller_Shadow_1_" fill="#F0282C" d="M38.347,30.612c0.281-0.472,0.5-0.974,0.689-1.489
		c-0.004-0.004-0.006-0.011-0.007-0.017c0.195-0.523,0.35-1.065,0.464-1.616c0.022-0.106,0.054-0.208,0.07-0.313
		c0.004-0.013,0.006-0.026,0.012-0.039c0.12-0.438,0.22-0.881,0.287-1.331c0.002-0.018,0.008-0.035,0.01-0.052
		c0.18-1.271,0.146-2.545,0.055-3.817c-0.105-1.441-0.254-2.883-0.451-4.316c-0.344-2.474-0.825-4.932-1.561-7.321
		c-0.116-0.382-0.246-0.76-0.376-1.138C37.23,9.2,36.973,9.226,36.898,9.226c-4.976-0.136-8.124-0.827-9.606-1.247
		c-0.6-0.193-1.227-0.482-1.227-0.482h-0.009c-0.626-0.364-1.388-0.2-1.853-0.034c0,0-1.624,0.645-2.988,1.325
		c-0.015,0.007-0.031,0.01-0.047,0.019c-0.189,0.095-0.393,0.204-0.6,0.319c-0.106,0.059-0.209,0.116-0.306,0.173h0.003
		c-1.135,0.673-2.435,1.666-3.561,3.112c-3.73,4.787-6.223,10.043-6.205,15.174c0,0,0.002,0.233,0.058,0.519
		c0,0,0.283,2.566,3.006,2.907c0.946,0.184,3.467,0.214,7.947-6.204c0,0,0.154-0.293,0.456-0.726
		c0.146-0.171,0.442-0.238,0.545-0.219c0,0,10.774,1.407,12.343,2.497C35.87,27.063,36.458,26.98,38.347,30.612z"/>
	<g id="Controller_1_">
		<path id="Bottom_Grey_2_" fill="#090C10" d="M41.347,34.937c-3.201-8.881-4.731-10.175-6.225-11.208
			c-1.579-1.088-12.939-2.561-12.939-2.561c-3.014-0.655-9.438,6.655-9.438,6.655c-0.161,0.149-0.547,0.646-0.665,0.934
			c-0.011,0.022-0.062,0.277-0.062,0.372c0,0.431,0.471,0.78,0.883,0.844c0.785,0.188,3.336,0.687,8.119-6.168
			c0,0,0.154-0.294,0.455-0.724c0.146-0.172,0.442-0.239,0.545-0.22c0,0,10.773,1.407,12.341,2.498
			c1.403,0.969,1.987,0.437,6.313,10.271c0,0,0.603,1.424,1.612,1.283C42.276,36.917,42.029,36.825,41.347,34.937z"/>
		<path id="Controller_2_" fill="#FFFFFF" d="M16.21,11.411c-3.733,4.788-6.224,10.044-6.207,15.174c0,0,0.013,1.626,0.963,1.483
			c0,0,0.484-0.055,0.716-0.256c0.232-0.205,0.403-0.419,0.403-0.419s6.374-7.629,9.952-6.887c0,0,11.687,1.474,13.307,2.563
			c1.614,1.088,3.271,2.453,6.917,12.609c0,0,1.186,3.156,3.948-1.122c2.771-4.28,2.62-19.104-2.539-23.273
			c0,0-2.522-2.028-4.445-1.969c0,0-0.857-0.092-1.959,0.645c-1.101,0.735-2.096,1.328-3.408,1.42c-1.314,0.093-4.86-0.5-4.95-0.552
			c-0.086-0.054-1.448-0.083-3.361-2.5c0,0-0.556-0.795-0.984-0.877c-0.758-0.144-2.605-0.293-3.89,0.352
			C19.378,8.448,17.649,9.562,16.21,11.411z"/>
		<path id="Top_Grey_1_" fill="#090C10" d="M43.518,10.482L43.518,10.482c-0.199-0.362-0.71-0.833-0.71-0.833h-0.004l0,0h0.004
			c-0.895-0.852-2.286-1.832-3.812-1.643V8.004c0,0-1.533,0.235-2.597,0.217c-4.975-0.134-8.123-0.824-9.605-1.244
			c-0.6-0.192-1.226-0.482-1.226-0.482h-0.01c-0.627-0.364-1.385-0.199-1.853-0.034l0,0c-0.04,0.015-0.069,0.052-0.069,0.095
			c0,0.069,0.048,0.087,0.086,0.093c0.451,0.018,0.842,0.065,1.103,0.118c0.422,0.082,0.968,0.875,0.968,0.875
			c1.89,2.419,3.223,2.449,3.31,2.502c0.08,0.05,3.114,0.567,4.573,0.563c0.095,0,0.182-0.003,0.261-0.008
			c1.299-0.095,2.269-0.685,3.36-1.42c0.898-0.604,1.62-0.649,1.854-0.646c0.063,0,0.102,0.003,0.102,0.003
			c1.159-0.035,2.526,0.702,3.421,1.285c0.229,0.173,0.82,0.59,0.827,0.59c0.014,0,0.02-0.01,0.02-0.021
			C43.521,10.49,43.518,10.49,43.518,10.482z"/>
	</g>
</g>
</svg>
