<?xml version="1.0" encoding="utf-8"?>
<!-- Generator: Adobe Illustrator 16.0.0, SVG Export Plug-In . SVG Version: 6.00 Build 0)  -->
<!DOCTYPE svg PUBLIC "-//W3C//DTD SVG 1.1//EN" "http://www.w3.org/Graphics/SVG/1.1/DTD/svg11.dtd">
<svg version="1.1" id="Layer_1" xmlns="http://www.w3.org/2000/svg" xmlns:xlink="http://www.w3.org/1999/xlink" x="0px" y="0px"
	 width="32px" height="32px" viewBox="0 0 32 32" enable-background="new 0 0 32 32" xml:space="preserve">
<g id="Red_2_">
	<path id="DBG_2_" fill="#F52E33" d="M0.133,13.03c0.36,3.239,0.908,6.525,2.052,9.59c0.392,1.051,0.876,2.022,1.479,2.964
		c0.307,0.478,0.624,0.939,1.015,1.357c0.727,0.775,1.624,1.384,2.613,1.776c1.478,0.586,3.104,0.676,4.668,0.473
		c2.101-0.27,4.189-0.768,6.219-1.366c1.579-0.463,3.142-1.009,4.651-1.664c0.812-0.356,1.571-0.759,2.313-1.238
		c0.714-0.464,1.405-0.948,1.963-1.6c0.836-0.978,1.289-2.197,1.471-3.454c0.131-0.939,0.111-1.886,0.041-2.826
		c-0.084-1.069-0.191-2.138-0.339-3.2c-0.254-1.834-0.615-3.654-1.161-5.424c-0.235-0.767-0.505-1.527-0.818-2.268
		c-0.3-0.714-0.621-1.437-1.037-2.094c-0.843-1.333-2.147-2.279-3.644-2.77c-0.629-0.207-1.283-0.337-1.942-0.406
		c-0.387-0.038-0.771-0.038-1.156-0.057c-0.824-0.037-1.65-0.042-2.478-0.03c-1.587,0.02-3.174,0.11-4.75,0.29
		c-1.782,0.205-3.566,0.521-5.27,1.086C4.531,2.667,3.107,3.426,2.042,4.597C1.115,5.616,0.537,6.883,0.253,8.221
		C-0.081,9.799-0.043,11.438,0.133,13.03C1.147,22.135-0.417,8.09,0.133,13.03z"/>
	<path id="BG_2_" fill="#FF3035" d="M0.671,12.316c0.36,3.24,0.909,6.527,2.052,9.591c0.391,1.049,0.876,2.022,1.48,2.962
		c0.306,0.48,0.622,0.942,1.015,1.357c0.728,0.776,1.624,1.386,2.615,1.778c1.477,0.585,3.104,0.678,4.667,0.474
		c2.1-0.271,4.191-0.771,6.22-1.366c1.579-0.466,3.141-1.008,4.648-1.665c0.814-0.356,1.574-0.76,2.316-1.24
		c0.716-0.462,1.405-0.946,1.962-1.598c0.837-0.977,1.29-2.195,1.47-3.453c0.133-0.941,0.111-1.886,0.041-2.828
		c-0.08-1.07-0.188-2.138-0.337-3.2c-0.254-1.833-0.616-3.653-1.161-5.424c-0.235-0.768-0.507-1.527-0.818-2.269
		c-0.299-0.713-0.623-1.438-1.037-2.093c-0.845-1.334-2.148-2.278-3.645-2.77c-0.629-0.207-1.284-0.337-1.943-0.406
		c-0.384-0.039-0.768-0.039-1.154-0.058c-0.823-0.037-1.651-0.041-2.478-0.031C15,0.1,13.412,0.188,11.834,0.371
		c-1.78,0.203-3.566,0.52-5.27,1.084C5.073,1.952,3.646,2.713,2.582,3.883C1.654,4.904,1.076,6.17,0.792,7.506
		C0.458,9.086,0.495,10.722,0.671,12.316C1.685,21.421,0.122,7.377,0.671,12.316z"/>
</g>
<path id="P_Shadow" opacity="0.1" fill="#231F20" enable-background="new    " d="M26.924,5.585l0.235,0.604
	c3.016,1.198,4.491,3.473,4.12,8.124c-0.563,7.026-5.412,8.736-9.119,8.736c-0.33,0-0.651-0.014-0.96-0.038l-4.76-0.38l-0.698,8.758
	L10.869,31l0.137-1.711c-0.147,0.012-0.355,0.008-0.502,0.003l-0.133,1.668l-0.04,0.499l0.499,0.039l4.873,0.389l0.498,0.04
	l0.04-0.497l0.659-8.26l4.261,0.34c0.331,0.026,0.667,0.04,1,0.04c2.672,0,8.956-0.896,9.618-9.197
	C32.184,9.282,30.455,6.834,26.924,5.585z"/>
<path id="P" fill="#FFFFFF" d="M16.44,22.632l-0.698,8.757L10.869,31l2.125-26.651l7.538,0.601
	c7.386,0.589,11.331,2.053,10.747,9.363c-0.609,7.653-6.313,9-10.079,8.699L16.44,22.632z M17.543,8.812l-0.738,9.252l4.112,0.326
	c3.54,0.281,5.123-0.816,5.411-4.436c0.242-3.046-0.713-4.501-4.787-4.827L17.543,8.812z"/>
<linearGradient id="Overlay_1_" gradientUnits="userSpaceOnUse" x1="885.7266" y1="-1142.7314" x2="907.6" y2="-1120.8582" gradientTransform="matrix(1 0 0 -1 -878 -1114)">
	<stop  offset="0" style="stop-color:#000000;stop-opacity:0"/>
	<stop  offset="1" style="stop-color:#000000"/>
</linearGradient>
<path id="Overlay" opacity="0.1" fill="url(#Overlay_1_)" enable-background="new    " d="M27.15,6.182
	c-0.103-0.27-0.2-0.54-0.313-0.806c-0.3-0.717-0.621-1.441-1.037-2.099C24.955,1.94,23.65,0.994,22.158,0.5
	c0,1.589-0.186,3.12-0.506,4.592c-0.146,0.673-0.319,1.333-0.521,1.98c-0.004,0.014-0.009,0.028-0.014,0.042
	c-0.206,0.656-0.438,1.299-0.694,1.927h0.005c-0.895,2.19-2.072,4.21-3.386,6.041l0.001-0.011c-1.247,1.738-2.613,3.305-3.973,4.684
	c-0.029,0.029-0.058,0.06-0.087,0.089c-0.423,0.428-0.845,0.833-1.263,1.223c-2.764,2.576-5.316,4.332-6.532,5.113
	c0.01,0.012,0.018,0.024,0.029,0.035c0.729,0.781,1.623,1.393,2.615,1.783c1.029,0.41,2.13,0.564,3.232,0.561L10.869,31l4.873,0.389
	l0.285-3.572c0.905-0.213,1.805-0.447,2.69-0.711c1.578-0.469,3.143-1.01,4.651-1.672c0.813-0.354,1.571-0.758,2.313-1.24
	c0.715-0.465,1.403-0.946,1.963-1.602c0.515-0.6,0.869-1.298,1.115-2.035c1.316-1.343,2.286-3.336,2.52-6.244
	C31.652,9.656,30.176,7.378,27.15,6.182z"/>
</svg>
