<?xml version="1.0" encoding="utf-8"?>
<!-- Generator: Adobe Illustrator 16.0.0, SVG Export Plug-In . SVG Version: 6.00 Build 0)  -->
<!DOCTYPE svg PUBLIC "-//W3C//DTD SVG 1.1//EN" "http://www.w3.org/Graphics/SVG/1.1/DTD/svg11.dtd">
<svg version="1.1" id="Layer_1" xmlns="http://www.w3.org/2000/svg" xmlns:xlink="http://www.w3.org/1999/xlink" x="0px" y="0px"
	 width="16px" height="10.582px" viewBox="0 0 16 10.582" enable-background="new 0 0 16 10.582" xml:space="preserve">
<path fill="#FFFFFF" d="M0,7.587V3.24c0-1.908,1.332-2.912,2.993-2.912h2.748c1.661,0,2.993,1.004,2.993,2.912v2.358
	c0,0.347-0.043,0.634-0.532,0.634H2.584c-0.328,0-0.615-0.144-0.8-0.39v1.826c0,0.679,0.532,1.209,1.209,1.209h5.085
	c0.124,0,0.227,0.104,0.227,0.228v1.477H2.993C1.332,10.582,0,9.25,0,7.587z M2.993,2.01c-0.677,0-1.209,0.39-1.209,1.209v1.107
	c0,0.124,0.081,0.206,0.204,0.227h4.777c0.124,0,0.227-0.103,0.227-0.227V3.219c0-0.82-0.39-1.209-1.189-1.209H2.993z"/>
<path fill="#FF2A2F" d="M16,2.132v1.271c0,0.144-0.124,0.266-0.268,0.266h-1.743v2.112h-1.291c-0.144,0-0.267-0.123-0.267-0.268
	V3.67h-2.01V2.399c0-0.144,0.123-0.267,0.268-0.267h1.742V0h1.291c0.145,0,0.267,0.123,0.267,0.267v1.866L16,2.132L16,2.132z"/>
</svg>
