<?xml version="1.0" encoding="utf-8"?>
<!-- Generator: Adobe Illustrator 16.0.0, SVG Export Plug-In . SVG Version: 6.00 Build 0)  -->
<!DOCTYPE svg PUBLIC "-//W3C//DTD SVG 1.1//EN" "http://www.w3.org/Graphics/SVG/1.1/DTD/svg11.dtd">
<svg version="1.1" id="Layer_1" xmlns="http://www.w3.org/2000/svg" xmlns:xlink="http://www.w3.org/1999/xlink" x="0px" y="0px"
	 width="43.713px" height="12.2px" viewBox="0 0 43.713 12.2" enable-background="new 0 0 43.713 12.2" xml:space="preserve">
<g>
	<path fill="#FFFFFF" d="M0,7.149V4.605C0,3.49,0.779,2.902,1.751,2.902h1.607c0.972,0,1.751,0.588,1.751,1.703v1.379
		c0,0.204-0.024,0.372-0.312,0.372H1.511c-0.192,0-0.36-0.084-0.468-0.228v1.068c0,0.395,0.312,0.707,0.708,0.707h2.974
		c0.072,0,0.132,0.061,0.132,0.133v0.863H1.751C0.779,8.899,0,8.12,0,7.149z M1.751,3.885c-0.396,0-0.708,0.229-0.708,0.708V5.24
		c0,0.072,0.048,0.12,0.12,0.132h2.794c0.072,0,0.132-0.06,0.132-0.132V4.593c0-0.479-0.228-0.708-0.696-0.708H1.751z"/>
	<path fill="#FFFFFF" d="M6.408,5.289V4.485c0-0.972,0.671-1.583,1.643-1.583h3.286v0.852c0,0.072-0.06,0.132-0.131,0.132H8.051
		c-0.396,0-0.6,0.192-0.6,0.588v0.348c0,0.061,0.048,0.108,0.108,0.132l3.706,0.876c0.192,0.036,0.323,0.204,0.323,0.396v1.067
		c0,1.043-0.743,1.606-1.715,1.606H6.479V8.047c0-0.072,0.06-0.133,0.132-0.133h3.262c0.396,0,0.744-0.228,0.744-0.623V6.729
		c0-0.063-0.049-0.109-0.108-0.121L6.744,5.684C6.552,5.649,6.408,5.481,6.408,5.289z"/>
	<path fill="#FFFFFF" d="M16.331,8.899H14.95c-0.371,0-0.67-0.191-0.814-0.383v3.178c0,0.072-0.061,0.131-0.133,0.131h-0.911V3.274
		c0-0.204,0.168-0.372,0.384-0.372h2.855c0.959,0,1.75,0.504,1.75,1.691v2.615C18.081,8.215,17.29,8.899,16.331,8.899z
		 M17.038,4.593c0-0.552-0.324-0.708-0.707-0.708h-2.064c-0.071,0-0.131,0.061-0.131,0.132v3.274
		c0.023,0.313,0.264,0.576,0.576,0.61h1.619c0.383,0,0.707-0.313,0.707-0.707V4.593z"/>
	<path fill="#FFFFFF" d="M21.25,8.983c-0.971,0-1.752-0.779-1.752-1.75V4.569c0-0.959,0.781-1.751,1.752-1.751h1.584
		c0.972,0,1.763,0.792,1.763,1.751v2.664c0,0.971-0.791,1.75-1.763,1.75H21.25z M20.543,4.521V7.28C20.543,7.676,20.854,8,21.25,8
		h1.584c0.396,0,0.72-0.322,0.72-0.722V4.521c0-0.384-0.324-0.707-0.72-0.707H21.25C20.854,3.814,20.543,4.137,20.543,4.521z"/>
	<path fill="#FFFFFF" d="M29.301,2.902v0.863c0,0.072-0.059,0.132-0.131,0.132h-1.5c-0.323,0-0.551,0.252-0.576,0.54v4.462h-0.909
		c-0.072,0-0.134-0.061-0.134-0.131V2.902h0.912c0.072,0,0.131,0.048,0.131,0.12v0.264c0.146-0.204,0.446-0.384,0.817-0.384H29.301z
		"/>
	<path fill="#FFFFFF" d="M33.37,8.036v0.863h-1.211c-0.959,0-1.752-0.779-1.752-1.75V0h0.912c0.072,0,0.133,0.06,0.133,0.132V3.13
		c0.059-0.132,0.191-0.216,0.348-0.216h1.271v0.864c0,0.071-0.063,0.119-0.133,0.119h-1.486v3.299c0,0.396,0.311,0.707,0.707,0.707
		h1.08C33.31,7.903,33.37,7.963,33.37,8.036z"/>
	<path fill="#FFFFFF" d="M34.284,5.289V4.485c0-0.972,0.672-1.583,1.643-1.583h3.287v0.852c0,0.072-0.061,0.132-0.133,0.132h-3.154
		c-0.396,0-0.6,0.192-0.6,0.588v0.348c0,0.061,0.049,0.108,0.107,0.132l3.707,0.876c0.189,0.036,0.32,0.204,0.32,0.396v1.067
		c0,1.043-0.74,1.606-1.715,1.606h-3.395V8.047c0-0.072,0.061-0.133,0.131-0.133h3.264c0.396,0,0.744-0.228,0.744-0.623V6.729
		c0-0.063-0.049-0.109-0.107-0.121L34.62,5.684C34.426,5.649,34.284,5.481,34.284,5.289z"/>
	<path fill="#FF2A2F" d="M43.713,3.958v0.743c0,0.084-0.071,0.156-0.155,0.156H42.54v1.235h-0.756c-0.084,0-0.156-0.072-0.156-0.156
		V4.857h-1.176V4.114c0-0.084,0.072-0.156,0.156-0.156h1.02V2.71h0.756c0.084,0,0.156,0.071,0.156,0.155v1.092L43.713,3.958
		L43.713,3.958z"/>
</g>
</svg>
