<?xml version="1.0" encoding="utf-8"?>
<!-- Generator: Adobe Illustrator 16.0.0, SVG Export Plug-In . SVG Version: 6.00 Build 0)  -->
<!DOCTYPE svg PUBLIC "-//W3C//DTD SVG 1.1//EN" "http://www.w3.org/Graphics/SVG/1.1/DTD/svg11.dtd">
<svg version="1.1" id="Layer_1" xmlns="http://www.w3.org/2000/svg" xmlns:xlink="http://www.w3.org/1999/xlink" x="0px" y="0px"
	 width="16px" height="16px" viewBox="248 248 16 16" enable-background="new 248 248 16 16" xml:space="preserve">
<rect id="BG_1_" x="248" y="248" fill="#DCE4EC" width="16" height="16"/>
<g id="User">
	<path id="Neck" fill="#C8CFD8" d="M263.529,261.569c-0.554-0.324-3.492-0.908-4.529-1.175c-0.955-0.246-1.019-0.98-0.971-1.257
		c-0.328,0.382-0.727,0.706-1.198,0.899c-0.279,0.114-0.477,0.16-0.797,0.188c-0.011,0.001-0.024,0.002-0.034,0.003
		c-0.011-0.001-0.024-0.002-0.034-0.003c-0.321-0.028-0.518-0.074-0.797-0.188c-0.473-0.193-0.871-0.518-1.198-0.899
		c0.047,0.276-0.016,1.011-0.972,1.257c-1.037,0.267-3.975,0.851-4.528,1.175c-0.554,0.323-0.469,0.485-0.469,0.485V264h7.466h0.001
		H256h0.531l0,0h7.467v-1.945C263.998,262.055,264.082,261.893,263.529,261.569z"/>
	<path id="Shadow" fill="#B8BEC8" d="M256.072,258.612l-2.679-0.731c0,0,0.705,2.495,2.679,2.495s2.679-2.495,2.679-2.495
		L256.072,258.612z"/>
	<path id="Head" fill="#F4F8FD" d="M259.351,253.478c-0.108-0.958-0.645-1.623-1.502-2.034c-0.411-0.197-0.852-0.285-1.307-0.325
		c-0.157-0.014-0.314-0.023-0.47-0.025c-0.156,0.002-0.313,0.011-0.471,0.025c-0.455,0.041-0.896,0.128-1.306,0.325
		c-0.857,0.411-1.393,1.077-1.502,2.034c-0.107,0.936-0.006,1.863,0.171,2.785c0.131,0.686,0.31,1.355,0.575,2.001
		c0.111,0.271,0.279,0.556,0.438,0.8c0.337,0.403,0.724,0.743,1.214,0.95c0.285,0.12,0.575,0.213,0.88,0.208
		c0.306,0.005,0.595-0.088,0.88-0.208c0.49-0.207,0.877-0.547,1.214-0.95c0.159-0.244,0.326-0.529,0.438-0.8
		c0.267-0.646,0.444-1.315,0.576-2.001C259.356,255.341,259.457,254.414,259.351,253.478z"/>
</g>
</svg>
